<svg width="40" height="40" viewBox="0 0 40 40" fill="none" xmlns="http://www.w3.org/2000/svg">
<path d="M20.0001 40C16.9347 39.9916 13.9972 38.7701 11.8296 36.6025C9.66205 34.4349 8.44057 31.4974 8.43213 28.432V11.568C8.43213 8.49998 9.6509 5.55761 11.8203 3.38819C13.9897 1.21877 16.9321 0 20.0001 0C23.0682 0 26.0105 1.21877 28.1799 3.38819C30.3494 5.55761 31.5681 8.49998 31.5681 11.568V28.432C31.5597 31.4974 30.3382 34.4349 28.1706 36.6025C26.003 38.7701 23.0656 39.9916 20.0001 40ZM20.0001 2.076C17.4837 2.07918 15.0712 3.08024 13.2918 4.85965C11.5124 6.63906 10.5113 9.05154 10.5081 11.568V28.432C10.5081 30.9494 11.5082 33.3638 13.2883 35.1439C15.0684 36.924 17.4827 37.924 20.0001 37.924C22.5176 37.924 24.9319 36.924 26.712 35.1439C28.4921 33.3638 29.4921 30.9494 29.4921 28.432V11.568C29.489 9.05154 28.4879 6.63906 26.7085 4.85965C24.9291 3.08024 22.5166 2.07918 20.0001 2.076Z" fill="#004381" fill-opacity="0.8"/>
<path d="M20 16.512C19.7248 16.512 19.4609 16.4029 19.266 16.2088C19.0711 16.0146 18.961 15.7511 18.96 15.476V9.34396C18.96 9.06813 19.0695 8.8036 19.2646 8.60856C19.4596 8.41353 19.7241 8.30396 20 8.30396C20.2758 8.30396 20.5403 8.41353 20.7354 8.60856C20.9304 8.8036 21.04 9.06813 21.04 9.34396V15.476C21.0389 15.7511 20.9289 16.0146 20.7339 16.2088C20.539 16.4029 20.2751 16.512 20 16.512Z" fill="#004381" fill-opacity="0.8"/>
</svg>
